<svg width="952.5" height="98.4" viewBox="0 0 952.5 98.4" xmlns="http://www.w3.org/2000/svg"><g id="svgGroup" stroke-linecap="round" fill-rule="evenodd" font-size="9pt" stroke="#000" stroke-width="0.25mm" fill="#000" style="stroke:#000;stroke-width:0.25mm;fill:#000"><path d="M 669 75.2 L 660 75.2 L 660 23.2 L 668.7 23.2 L 668.7 31.9 Q 671.5 27.7 675.8 24.85 A 17.205 17.205 0 0 1 685.002 22.009 A 20.858 20.858 0 0 1 685.6 22 A 20.994 20.994 0 0 1 690.017 22.44 Q 693.003 23.082 695.285 24.663 A 13.128 13.128 0 0 1 695.75 25 A 15.751 15.751 0 0 1 701.198 32.69 A 19.154 19.154 0 0 1 701.3 33 Q 704.4 28.4 708.65 25.2 A 15.669 15.669 0 0 1 715.441 22.317 A 21.446 21.446 0 0 1 719.2 22 A 21.437 21.437 0 0 1 724.088 22.523 Q 727.674 23.362 730.163 25.551 A 12.994 12.994 0 0 1 731.85 27.35 A 18.992 18.992 0 0 1 735.261 34.622 Q 736 37.672 736 41.3 L 736 75.2 L 727 75.2 L 727 42 A 19.042 19.042 0 0 0 726.663 38.311 Q 726.227 36.105 725.228 34.361 A 10.982 10.982 0 0 0 724.5 33.25 A 7.974 7.974 0 0 0 718.687 29.954 A 10.678 10.678 0 0 0 717.6 29.9 A 11.926 11.926 0 0 0 710.841 32.027 A 15.996 15.996 0 0 0 709.25 33.25 Q 705.4 36.6 702.5 41.1 L 702.5 75.2 L 693.5 75.2 L 693.5 42 A 19.042 19.042 0 0 0 693.163 38.311 Q 692.727 36.105 691.728 34.361 A 10.982 10.982 0 0 0 691 33.25 A 7.974 7.974 0 0 0 685.187 29.954 A 10.678 10.678 0 0 0 684.1 29.9 A 12.02 12.02 0 0 0 677.781 31.728 A 16.244 16.244 0 0 0 675.8 33.15 Q 671.9 36.4 669 40.8 L 669 75.2 Z M 0 69.3 L 4.8 61.3 Q 8.4 64.3 12.9 66.2 A 23.348 23.348 0 0 0 18.27 67.71 A 32.118 32.118 0 0 0 23.4 68.1 A 27.981 27.981 0 0 0 27.947 67.754 Q 30.37 67.354 32.331 66.494 A 13.701 13.701 0 0 0 34.8 65.1 Q 38.848 62.209 38.995 57.366 A 12.116 12.116 0 0 0 39 57 A 11.94 11.94 0 0 0 38.663 54.107 A 9.816 9.816 0 0 0 37.8 51.85 A 8.097 8.097 0 0 0 36.6 50.194 Q 35.33 48.813 33.184 47.471 A 25.81 25.81 0 0 0 33.15 47.45 Q 30.034 45.508 24.265 43.28 A 118.584 118.584 0 0 0 23 42.8 Q 15.8 40 11.5 37.15 A 21.931 21.931 0 0 1 8.411 34.702 Q 6.694 33.053 5.638 31.188 A 13.303 13.303 0 0 1 5.35 30.65 Q 3.5 27 3.5 22 Q 3.5 17 6.25 12.95 Q 9 8.9 14.35 6.45 A 25.558 25.558 0 0 1 20.25 4.615 Q 23.493 4 27.3 4 Q 33.5 4 38.45 5.25 Q 43.4 6.5 48.1 8.8 L 44.6 16.9 A 31.496 31.496 0 0 0 40.474 14.881 A 41.686 41.686 0 0 0 36.65 13.55 Q 32.1 12.2 27.1 12.2 A 27.187 27.187 0 0 0 23.07 12.48 Q 20.938 12.8 19.2 13.487 A 12.616 12.616 0 0 0 16.7 14.8 A 9.902 9.902 0 0 0 14.537 16.765 A 7.359 7.359 0 0 0 12.9 21.5 A 10.464 10.464 0 0 0 13.192 24.022 A 8.562 8.562 0 0 0 14 26.1 Q 15.056 28.019 18.091 29.847 A 23.503 23.503 0 0 0 18.35 30 A 33.003 33.003 0 0 0 20.566 31.172 Q 22.835 32.275 26.046 33.523 A 130.016 130.016 0 0 0 28.1 34.3 A 81.228 81.228 0 0 1 33.078 36.329 Q 37.464 38.3 40.45 40.4 A 26.044 26.044 0 0 1 43.49 42.877 Q 45.713 45.006 46.9 47.35 A 17.579 17.579 0 0 1 48.641 53.213 A 22.155 22.155 0 0 1 48.8 55.9 A 21.71 21.71 0 0 1 48.133 61.401 A 17.105 17.105 0 0 1 45.55 67 Q 42.3 71.6 36.55 74 A 30.521 30.521 0 0 1 29.14 76.004 A 40.027 40.027 0 0 1 23.4 76.4 Q 16.1 76.4 10.1 74.45 A 38.206 38.206 0 0 1 4.733 72.268 A 28.433 28.433 0 0 1 0 69.3 Z M 300.6 96.4 L 302.6 88.9 A 9.908 9.908 0 0 0 303.765 89.474 Q 304.588 89.819 305.6 90.1 A 13.514 13.514 0 0 0 307.879 90.518 A 17.358 17.358 0 0 0 309.6 90.6 Q 313.8 90.6 317.1 87.9 A 12.003 12.003 0 0 0 319.033 85.839 Q 320.781 83.528 322.441 79.675 A 58.58 58.58 0 0 0 323.4 77.3 L 325.7 71.3 L 320.9 71.3 L 300.6 25.6 L 308.6 22 L 328 65.3 L 343.1 22.4 L 351.4 25.6 L 332.3 77.8 A 71.728 71.728 0 0 1 330.247 82.887 Q 329.145 85.326 327.978 87.314 A 30.86 30.86 0 0 1 326 90.3 A 24.268 24.268 0 0 1 323.122 93.511 Q 321.208 95.279 319.105 96.318 A 14.737 14.737 0 0 1 318.5 96.6 Q 314.4 98.4 309.4 98.4 Q 306.4 98.4 304.15 97.8 Q 301.9 97.2 300.6 96.4 Z M 452.9 57 L 452.9 23.2 L 461.9 23.2 L 461.9 55.8 A 22.981 22.981 0 0 0 462.154 59.334 Q 462.442 61.181 463.057 62.67 A 10.136 10.136 0 0 0 464.5 65.15 A 8.404 8.404 0 0 0 469.613 68.171 A 12.807 12.807 0 0 0 472.1 68.4 Q 476.2 68.4 480.05 66.75 Q 483.9 65.1 486.9 62.3 L 486.9 23.2 L 495.9 23.2 L 495.9 61.7 A 15.602 15.602 0 0 0 496.002 63.554 Q 496.334 66.317 497.75 67.35 Q 499.6 68.7 501.8 68.7 L 499.9 75.7 Q 490.6 75.7 488.4 68.3 Q 484.9 71.9 480.3 74.15 Q 475.7 76.4 470.4 76.4 Q 465.9 76.4 461.9 74.5 A 14.441 14.441 0 0 1 456.39 69.861 A 18.266 18.266 0 0 1 455.4 68.35 A 16.24 16.24 0 0 1 453.736 64.257 Q 452.9 61.105 452.9 57 Z M 257.9 75.2 L 248.9 75.2 L 248.9 23.2 L 257.6 23.2 L 257.6 31.9 Q 260.4 27.7 264.75 24.85 A 17.316 17.316 0 0 1 271.856 22.226 A 22.629 22.629 0 0 1 275.1 22 A 23.225 23.225 0 0 1 280.165 22.518 Q 285.259 23.656 288.25 27.3 Q 292.375 32.326 292.588 40.409 A 33.764 33.764 0 0 1 292.6 41.3 L 292.6 75.2 L 283.6 75.2 L 283.6 42.3 A 19.265 19.265 0 0 0 283.258 38.559 Q 282.819 36.345 281.819 34.597 A 10.966 10.966 0 0 0 280.95 33.3 A 8.579 8.579 0 0 0 274.673 29.947 A 12.061 12.061 0 0 0 273.6 29.9 A 13.122 13.122 0 0 0 266.751 31.864 A 17.353 17.353 0 0 0 264.9 33.15 Q 260.8 36.4 257.9 40.8 L 257.9 75.2 Z M 822.2 75.2 L 813.2 75.2 L 813.2 23.2 L 821.9 23.2 L 821.9 31.9 Q 824.7 27.7 829.05 24.85 A 17.316 17.316 0 0 1 836.156 22.226 A 22.629 22.629 0 0 1 839.4 22 A 23.225 23.225 0 0 1 844.465 22.518 Q 849.559 23.656 852.55 27.3 Q 856.675 32.326 856.888 40.409 A 33.764 33.764 0 0 1 856.9 41.3 L 856.9 75.2 L 847.9 75.2 L 847.9 42.3 A 19.265 19.265 0 0 0 847.558 38.559 Q 847.119 36.345 846.119 34.597 A 10.966 10.966 0 0 0 845.25 33.3 A 8.579 8.579 0 0 0 838.973 29.947 A 12.061 12.061 0 0 0 837.9 29.9 A 13.122 13.122 0 0 0 831.051 31.864 A 17.353 17.353 0 0 0 829.2 33.15 Q 825.1 36.4 822.2 40.8 L 822.2 75.2 Z M 509.3 71 L 513.1 63.5 A 18.557 18.557 0 0 0 516.244 65.626 Q 517.798 66.47 519.65 67.15 A 24.073 24.073 0 0 0 527.261 68.587 A 27.464 27.464 0 0 0 528.1 68.6 Q 533.492 68.6 536.335 66.885 A 7.738 7.738 0 0 0 536.55 66.75 Q 539.4 64.9 539.4 62 A 7.123 7.123 0 0 0 539.086 59.853 A 6.212 6.212 0 0 0 538.35 58.3 A 6.384 6.384 0 0 0 537.421 57.206 Q 536.407 56.234 534.734 55.281 A 22.3 22.3 0 0 0 534.5 55.15 A 28.462 28.462 0 0 0 532.506 54.157 Q 530.39 53.195 527.401 52.146 A 103.602 103.602 0 0 0 526.4 51.8 A 46.616 46.616 0 0 1 522.002 50.057 Q 519.888 49.083 518.212 47.995 A 19.335 19.335 0 0 1 515.45 45.85 A 11.324 11.324 0 0 1 512.156 39.854 A 16.794 16.794 0 0 1 511.8 36.3 Q 511.8 30.3 517.05 26.15 Q 521.454 22.669 528.708 22.108 A 37.527 37.527 0 0 1 531.6 22 A 40.794 40.794 0 0 1 536.046 22.231 Q 538.354 22.484 540.37 23.016 A 25.234 25.234 0 0 1 540.5 23.05 Q 544.4 24.1 547.5 25.7 L 545 33.1 Q 542.3 31.5 538.85 30.5 A 25.024 25.024 0 0 0 534.367 29.653 A 31.837 31.837 0 0 0 531.2 29.5 A 20.632 20.632 0 0 0 528.263 29.695 Q 525.177 30.14 523.3 31.6 A 9.322 9.322 0 0 0 521.942 32.874 Q 521.24 33.692 520.905 34.565 A 4.529 4.529 0 0 0 520.6 36.2 A 4.921 4.921 0 0 0 522.095 39.752 A 7.082 7.082 0 0 0 522.7 40.3 A 9.88 9.88 0 0 0 524 41.169 Q 526.273 42.471 530.698 43.934 A 84.459 84.459 0 0 0 530.9 44 A 67.753 67.753 0 0 1 535.962 45.898 Q 541.889 48.417 544.7 51.3 Q 548.6 55.3 548.6 61.3 Q 548.6 68.048 543.349 72.055 A 16.618 16.618 0 0 1 542.95 72.35 Q 538.21 75.748 530.762 76.295 A 40.423 40.423 0 0 1 527.8 76.4 Q 521.9 76.4 517.15 74.9 A 30.883 30.883 0 0 1 513.31 73.415 Q 511.329 72.484 509.748 71.336 A 18.229 18.229 0 0 1 509.3 71 Z M 163.9 75.2 L 154.9 75.2 L 154.9 32.9 L 146.9 32.9 L 146.9 25.1 L 154.9 25.1 L 154.9 19 A 25.495 25.495 0 0 1 155.526 13.182 Q 156.634 8.452 159.702 5.203 A 16.387 16.387 0 0 1 159.8 5.1 A 16.367 16.367 0 0 1 170.204 0.125 A 22.463 22.463 0 0 1 172.6 0 A 29.982 29.982 0 0 1 176.11 0.195 Q 177.855 0.401 179.371 0.825 A 17.884 17.884 0 0 1 179.8 0.95 Q 182.9 1.9 185.7 3.3 L 183 10.9 Q 180.9 9.8 178.5 8.9 A 14.172 14.172 0 0 0 174.878 8.079 A 17.356 17.356 0 0 0 173.2 8 A 10.802 10.802 0 0 0 170.171 8.405 A 8.291 8.291 0 0 0 166.45 10.65 A 8.462 8.462 0 0 0 164.503 14.019 Q 163.9 15.92 163.9 18.4 L 163.9 25.1 L 179.3 25.1 L 179.3 32.9 L 163.9 32.9 L 163.9 75.2 Z M 391.4 75 L 391.4 5.4 A 100.907 100.907 0 0 1 393.256 5.206 Q 396.153 4.93 399.976 4.707 A 270.552 270.552 0 0 1 400.1 4.7 A 168.416 168.416 0 0 1 404.937 4.495 Q 407.408 4.424 410.145 4.406 A 285.352 285.352 0 0 1 412 4.4 Q 420.4 4.4 426.259 6.489 A 22.604 22.604 0 0 1 431.7 9.25 A 16.711 16.711 0 0 1 436.263 13.907 Q 438.454 17.34 438.591 21.801 A 19.526 19.526 0 0 1 438.6 22.4 A 17.052 17.052 0 0 1 437.973 27.12 A 13.798 13.798 0 0 1 435.65 31.75 Q 432.7 35.6 427.1 38.1 A 30.217 30.217 0 0 1 431.736 40.16 Q 435.213 42.094 437.4 44.75 Q 440.9 49 440.9 55.2 Q 440.9 64.515 433.69 70.128 A 22.979 22.979 0 0 1 433.4 70.35 A 24.681 24.681 0 0 1 426.023 74.06 Q 419.979 76 411.6 76 A 221.836 221.836 0 0 1 403.52 75.858 A 187.566 187.566 0 0 1 400.05 75.7 A 227.449 227.449 0 0 1 397.466 75.544 Q 394.659 75.357 392.595 75.138 A 65.535 65.535 0 0 1 391.4 75 Z M 141.6 52.9 L 105.2 52.9 A 24.088 24.088 0 0 0 106.339 57.925 Q 107.675 61.738 110.3 64.3 Q 114.5 68.4 121.4 68.4 Q 125.9 68.4 129.5 67.45 Q 133.1 66.5 136.4 65 L 138.5 72.7 A 40.77 40.77 0 0 1 134.165 74.326 A 51.863 51.863 0 0 1 130.4 75.35 A 38.914 38.914 0 0 1 125.308 76.169 A 52.025 52.025 0 0 1 120.3 76.4 A 28.318 28.318 0 0 1 112.554 75.395 A 21.108 21.108 0 0 1 102.55 69.25 A 23.521 23.521 0 0 1 97.345 59.71 Q 96 55.045 96 49.2 A 35.359 35.359 0 0 1 96.833 41.378 A 28.84 28.84 0 0 1 98.95 35.25 A 24.642 24.642 0 0 1 103.966 28.168 A 22.887 22.887 0 0 1 107.2 25.55 A 21.048 21.048 0 0 1 117.459 22.078 A 26.205 26.205 0 0 1 119.5 22 Q 127 22 131.95 25.25 Q 136.9 28.5 139.4 34 A 28.185 28.185 0 0 1 141.826 43.864 A 33.434 33.434 0 0 1 141.9 46.1 A 75.204 75.204 0 0 1 141.609 52.797 A 69.426 69.426 0 0 1 141.6 52.9 Z M 952.2 52.9 L 915.8 52.9 A 24.088 24.088 0 0 0 916.939 57.925 Q 918.275 61.738 920.9 64.3 Q 925.1 68.4 932 68.4 Q 936.5 68.4 940.1 67.45 Q 943.7 66.5 947 65 L 949.1 72.7 A 40.77 40.77 0 0 1 944.765 74.326 A 51.863 51.863 0 0 1 941 75.35 A 38.914 38.914 0 0 1 935.908 76.169 A 52.025 52.025 0 0 1 930.9 76.4 A 28.318 28.318 0 0 1 923.154 75.395 A 21.108 21.108 0 0 1 913.15 69.25 A 23.521 23.521 0 0 1 907.945 59.71 Q 906.6 55.045 906.6 49.2 A 35.359 35.359 0 0 1 907.433 41.378 A 28.84 28.84 0 0 1 909.55 35.25 A 24.642 24.642 0 0 1 914.566 28.168 A 22.887 22.887 0 0 1 917.8 25.55 A 21.048 21.048 0 0 1 928.059 22.078 A 26.205 26.205 0 0 1 930.1 22 Q 937.6 22 942.55 25.25 Q 947.5 28.5 950 34 A 28.185 28.185 0 0 1 952.426 43.864 A 33.434 33.434 0 0 1 952.5 46.1 A 75.204 75.204 0 0 1 952.209 52.797 A 69.426 69.426 0 0 1 952.2 52.9 Z M 63.8 57.3 L 63.8 32.9 L 54.8 32.9 L 54.8 25.1 L 64 25.1 L 65.9 8.7 L 72.8 8.7 L 72.8 25.1 L 87.2 25.1 L 87.2 32.9 L 72.8 32.9 L 72.8 58 A 21.559 21.559 0 0 0 72.968 60.796 Q 73.441 64.402 75.25 66.1 Q 77.7 68.4 81.1 68.4 Q 83.6 68.4 85.85 67.6 Q 88.1 66.8 90 65.7 L 92.5 72.9 A 18.546 18.546 0 0 1 90.882 73.756 Q 90.08 74.135 89.134 74.508 A 43.365 43.365 0 0 1 87.1 75.25 Q 83.7 76.4 80 76.4 Q 72.5 76.4 68.15 71.45 A 16.116 16.116 0 0 1 64.922 65.548 Q 64.159 63.117 63.915 60.181 A 34.777 34.777 0 0 1 63.8 57.3 Z M 562.6 57.3 L 562.6 32.9 L 553.6 32.9 L 553.6 25.1 L 562.8 25.1 L 564.7 8.7 L 571.6 8.7 L 571.6 25.1 L 586 25.1 L 586 32.9 L 571.6 32.9 L 571.6 58 A 21.559 21.559 0 0 0 571.768 60.796 Q 572.241 64.402 574.05 66.1 Q 576.5 68.4 579.9 68.4 Q 582.4 68.4 584.65 67.6 Q 586.9 66.8 588.8 65.7 L 591.3 72.9 A 18.546 18.546 0 0 1 589.682 73.756 Q 588.88 74.135 587.934 74.508 A 43.365 43.365 0 0 1 585.9 75.25 Q 582.5 76.4 578.8 76.4 Q 571.3 76.4 566.95 71.45 A 16.116 16.116 0 0 1 563.722 65.548 Q 562.959 63.117 562.715 60.181 A 34.777 34.777 0 0 1 562.6 57.3 Z M 874.4 57.3 L 874.4 32.9 L 865.4 32.9 L 865.4 25.1 L 874.6 25.1 L 876.5 8.7 L 883.4 8.7 L 883.4 25.1 L 897.8 25.1 L 897.8 32.9 L 883.4 32.9 L 883.4 58 A 21.559 21.559 0 0 0 883.568 60.796 Q 884.041 64.402 885.85 66.1 Q 888.3 68.4 891.7 68.4 Q 894.2 68.4 896.45 67.6 Q 898.7 66.8 900.6 65.7 L 903.1 72.9 A 18.546 18.546 0 0 1 901.482 73.756 Q 900.68 74.135 899.734 74.508 A 43.365 43.365 0 0 1 897.7 75.25 Q 894.3 76.4 890.6 76.4 Q 883.1 76.4 878.75 71.45 A 16.116 16.116 0 0 1 875.522 65.548 Q 874.759 63.117 874.515 60.181 A 34.777 34.777 0 0 1 874.4 57.3 Z M 222.8 27.4 L 222.8 23.2 L 231 23.2 L 231 62.6 A 12.15 12.15 0 0 0 231.102 64.236 Q 231.434 66.67 232.85 67.55 Q 234.7 68.7 236.9 68.7 L 235 75.7 A 17.722 17.722 0 0 1 230.735 75.228 Q 225.098 73.828 223.503 68.28 A 13.59 13.59 0 0 1 223.4 67.9 A 21.307 21.307 0 0 1 220.29 71.326 A 28.498 28.498 0 0 1 217.15 73.75 Q 213.2 76.4 207.1 76.4 Q 200.6 76.4 195.3 73.1 A 22.947 22.947 0 0 1 187.887 65.574 A 27.923 27.923 0 0 1 186.85 63.75 A 27.228 27.228 0 0 1 184.22 55.808 A 36.644 36.644 0 0 1 183.7 49.5 A 33.142 33.142 0 0 1 184.697 41.231 A 27.968 27.968 0 0 1 186.85 35.5 Q 190 29.3 195.55 25.65 A 22.297 22.297 0 0 1 206.745 22.044 A 27.388 27.388 0 0 1 208.3 22 A 22.584 22.584 0 0 1 213.094 22.491 A 18.703 18.703 0 0 1 216.45 23.55 A 26.002 26.002 0 0 1 220.737 25.844 A 22.103 22.103 0 0 1 222.8 27.4 Z M 633.9 27.4 L 633.9 23.2 L 642.1 23.2 L 642.1 62.6 A 12.15 12.15 0 0 0 642.202 64.236 Q 642.534 66.67 643.95 67.55 Q 645.8 68.7 648 68.7 L 646.1 75.7 A 17.722 17.722 0 0 1 641.835 75.228 Q 636.198 73.828 634.603 68.28 A 13.59 13.59 0 0 1 634.5 67.9 A 21.307 21.307 0 0 1 631.39 71.326 A 28.498 28.498 0 0 1 628.25 73.75 Q 624.3 76.4 618.2 76.4 Q 611.7 76.4 606.4 73.1 A 22.947 22.947 0 0 1 598.987 65.574 A 27.923 27.923 0 0 1 597.95 63.75 A 27.228 27.228 0 0 1 595.32 55.808 A 36.644 36.644 0 0 1 594.8 49.5 A 33.142 33.142 0 0 1 595.797 41.231 A 27.968 27.968 0 0 1 597.95 35.5 Q 601.1 29.3 606.65 25.65 A 22.297 22.297 0 0 1 617.845 22.044 A 27.388 27.388 0 0 1 619.4 22 A 22.584 22.584 0 0 1 624.194 22.491 A 18.703 18.703 0 0 1 627.55 23.55 A 26.002 26.002 0 0 1 631.837 25.844 A 22.103 22.103 0 0 1 633.9 27.4 Z M 787.1 27.4 L 787.1 23.2 L 795.3 23.2 L 795.3 62.6 A 12.15 12.15 0 0 0 795.402 64.236 Q 795.734 66.67 797.15 67.55 Q 799 68.7 801.2 68.7 L 799.3 75.7 A 17.722 17.722 0 0 1 795.035 75.228 Q 789.398 73.828 787.803 68.28 A 13.59 13.59 0 0 1 787.7 67.9 A 21.307 21.307 0 0 1 784.59 71.326 A 28.498 28.498 0 0 1 781.45 73.75 Q 777.5 76.4 771.4 76.4 Q 764.9 76.4 759.6 73.1 A 22.947 22.947 0 0 1 752.187 65.574 A 27.923 27.923 0 0 1 751.15 63.75 A 27.228 27.228 0 0 1 748.52 55.808 A 36.644 36.644 0 0 1 748 49.5 A 33.142 33.142 0 0 1 748.997 41.231 A 27.968 27.968 0 0 1 751.15 35.5 Q 754.3 29.3 759.85 25.65 A 22.297 22.297 0 0 1 771.045 22.044 A 27.388 27.388 0 0 1 772.6 22 A 22.584 22.584 0 0 1 777.394 22.491 A 18.703 18.703 0 0 1 780.75 23.55 A 26.002 26.002 0 0 1 785.037 25.844 A 22.103 22.103 0 0 1 787.1 27.4 Z M 222 61.9 L 222 34 Q 219.3 32.1 216.05 30.95 Q 212.8 29.8 209.2 29.8 A 15.924 15.924 0 0 0 204.229 30.554 A 14.024 14.024 0 0 0 200.75 32.25 A 16.301 16.301 0 0 0 195.731 37.674 A 19.962 19.962 0 0 0 195 39.05 A 20.663 20.663 0 0 0 193.247 44.727 A 27.678 27.678 0 0 0 192.9 49.2 Q 192.9 54.8 195 59.15 A 17.602 17.602 0 0 0 198.106 63.696 A 15.697 15.697 0 0 0 200.8 65.95 Q 204.5 68.4 209.1 68.4 Q 212.9 68.4 216.3 66.55 Q 219.7 64.7 222 61.9 Z M 633.1 61.9 L 633.1 34 Q 630.4 32.1 627.15 30.95 Q 623.9 29.8 620.3 29.8 A 15.924 15.924 0 0 0 615.329 30.554 A 14.024 14.024 0 0 0 611.85 32.25 A 16.301 16.301 0 0 0 606.831 37.674 A 19.962 19.962 0 0 0 606.1 39.05 A 20.663 20.663 0 0 0 604.347 44.727 A 27.678 27.678 0 0 0 604 49.2 Q 604 54.8 606.1 59.15 A 17.602 17.602 0 0 0 609.206 63.696 A 15.697 15.697 0 0 0 611.9 65.95 Q 615.6 68.4 620.2 68.4 Q 624 68.4 627.4 66.55 Q 630.8 64.7 633.1 61.9 Z M 786.3 61.9 L 786.3 34 Q 783.6 32.1 780.35 30.95 Q 777.1 29.8 773.5 29.8 A 15.924 15.924 0 0 0 768.529 30.554 A 14.024 14.024 0 0 0 765.05 32.25 A 16.301 16.301 0 0 0 760.031 37.674 A 19.962 19.962 0 0 0 759.3 39.05 A 20.663 20.663 0 0 0 757.547 44.727 A 27.678 27.678 0 0 0 757.2 49.2 Q 757.2 54.8 759.3 59.15 A 17.602 17.602 0 0 0 762.406 63.696 A 15.697 15.697 0 0 0 765.1 65.95 Q 768.8 68.4 773.4 68.4 Q 777.2 68.4 780.6 66.55 Q 784 64.7 786.3 61.9 Z M 412.3 42.8 L 400.9 42.8 L 400.9 67.5 Q 406.2 68.1 412.3 68.1 Q 421.2 68.1 426.2 64.9 Q 431.2 61.7 431.2 55.6 A 11.728 11.728 0 0 0 430.328 51 Q 429.226 48.387 426.733 46.513 A 14.027 14.027 0 0 0 426.3 46.2 A 16.7 16.7 0 0 0 421.626 43.999 Q 417.703 42.8 412.3 42.8 Z M 400.9 12.6 L 400.9 35.4 L 411.9 35.4 Q 419.8 35.4 424.45 32.1 Q 429.1 28.8 429.1 23.6 A 10.798 10.798 0 0 0 428.426 19.701 Q 427.339 16.871 424.5 15.05 A 16.643 16.643 0 0 0 420.014 13.086 Q 416.525 12.1 411.9 12.1 Q 408.6 12.1 405.9 12.25 Q 403.2 12.4 400.9 12.6 Z M 105.1 45.6 L 133.6 45.6 A 24.355 24.355 0 0 0 133.196 41.015 Q 132.7 38.431 131.596 36.407 A 12.422 12.422 0 0 0 129.8 33.9 A 12.488 12.488 0 0 0 122.839 30.124 A 18.395 18.395 0 0 0 119.3 29.8 A 13.58 13.58 0 0 0 114.188 30.735 A 12.524 12.524 0 0 0 109.7 33.85 Q 105.9 37.9 105.1 45.6 Z M 915.7 45.6 L 944.2 45.6 A 24.355 24.355 0 0 0 943.796 41.015 Q 943.3 38.431 942.196 36.407 A 12.422 12.422 0 0 0 940.4 33.9 A 12.488 12.488 0 0 0 933.439 30.124 A 18.395 18.395 0 0 0 929.9 29.8 A 13.58 13.58 0 0 0 924.788 30.735 A 12.524 12.524 0 0 0 920.3 33.85 Q 916.5 37.9 915.7 45.6 Z" vector-effect="non-scaling-stroke"/></g></svg>
